<svg width="270" height="322" viewBox="0 0 270 322" fill="none" xmlns="http://www.w3.org/2000/svg">
<g clip-path="url(#clip0_464_532)">
<path d="M104.573 264.154C99.201 258.612 91.4156 255.434 83.2135 255.434L82.8971 255.435C77.4946 255.437 72.1885 254.003 67.5214 251.281L67.0358 250.998L67.4269 250.595C69.5445 248.404 71.3128 245.9 72.6696 243.171C71.7059 244.069 70.5566 244.745 69.3029 245.15C68.0491 245.555 66.7217 245.68 65.4145 245.515C64.0345 245.351 62.7096 244.876 61.5392 244.126C60.3689 243.376 59.3835 242.371 58.657 241.186C55.7903 236.533 52.373 229.932 52.373 224.903C52.3775 220.652 53.2673 216.449 54.9858 212.561C56.7043 208.673 59.2137 205.186 62.3541 202.322C64.3423 200.529 65.9303 198.337 67.0147 195.889C68.099 193.441 68.6554 190.792 68.6475 188.114L68.6459 187.733C68.6453 184.208 69.076 180.696 69.9284 177.275L70.0149 176.929L70.3702 176.942C72.6615 177.02 74.954 176.828 77.2003 176.37C75.0932 176.111 73.032 175.563 71.0749 174.74L70.6926 174.585L70.8224 174.193C79.7646 168.656 99.9496 171.523 111.666 144.712C121.166 122.971 154.685 164.011 154.685 187.733C154.685 190.153 152.29 193.352 154.083 194.952C173.464 212.247 160.092 223.352 155.875 234.527C154.875 237.179 157.044 240.089 157.044 242.958C157.044 243.445 157.032 243.947 157.007 244.451L156.97 245.226L156.324 244.796C155.045 243.958 153.86 242.986 152.789 241.896C153.9 244.454 154.424 247.229 154.322 250.017C154.219 252.805 153.493 255.534 152.197 258.004C150.166 261.838 148.201 264.583 146.357 266.162C140.449 271.219 132.833 273.827 125.067 273.454C117.3 273.081 109.969 269.754 104.573 264.154Z" fill="white"/>
<path d="M137.022 321.84C137.154 321.84 137.281 321.792 137.381 321.705C137.481 321.619 137.546 321.499 137.564 321.368C137.588 321.204 139.872 304.725 137.82 282.824C135.926 262.597 129.841 233.464 111.614 209.537C111.57 209.48 111.516 209.431 111.453 209.395C111.391 209.359 111.322 209.335 111.251 209.325C111.179 209.315 111.106 209.32 111.037 209.338C110.967 209.357 110.902 209.389 110.844 209.433C110.787 209.476 110.739 209.531 110.702 209.593C110.666 209.656 110.642 209.725 110.633 209.796C110.623 209.868 110.628 209.94 110.646 210.01C110.665 210.08 110.697 210.145 110.741 210.203C128.81 233.923 134.846 262.842 136.727 282.926C138.767 304.7 136.501 321.051 136.477 321.213C136.466 321.291 136.472 321.371 136.495 321.446C136.517 321.522 136.555 321.591 136.607 321.651C136.658 321.71 136.722 321.758 136.794 321.79C136.865 321.823 136.943 321.84 137.022 321.84Z" fill="#6D7F8F"/>
<path d="M122.147 243.287C122.263 243.287 122.376 243.25 122.47 243.182C122.564 243.114 122.633 243.018 122.669 242.908C122.705 242.797 122.705 242.679 122.67 242.568C122.634 242.458 122.564 242.362 122.47 242.294C117.276 238.777 111.666 235.92 105.767 233.789C96.5521 230.414 82.5389 227.355 68.1126 231.948C68.0438 231.969 67.9799 232.004 67.9247 232.051C67.8694 232.097 67.8239 232.154 67.7906 232.218C67.7574 232.283 67.7371 232.353 67.731 232.424C67.7249 232.496 67.733 232.569 67.7548 232.638C67.7767 232.706 67.812 232.77 67.8586 232.825C67.9051 232.881 67.9622 232.926 68.0263 232.959C68.0905 232.992 68.1605 233.012 68.2325 233.018C68.3044 233.024 68.3768 233.016 68.4456 232.994C82.5763 228.496 96.3354 231.505 105.39 234.82C111.193 236.915 116.714 239.724 121.825 243.182C121.918 243.25 122.031 243.287 122.147 243.287Z" fill="#6D7F8F"/>
<path d="M147.271 180.697C147.28 180.581 147.251 180.466 147.19 180.367C147.129 180.269 147.038 180.192 146.931 180.148C146.823 180.105 146.705 180.096 146.592 180.124C146.48 180.151 146.379 180.214 146.304 180.303C142.423 185.231 139.171 190.623 136.62 196.354C132.592 205.304 128.532 219.064 132.073 233.787C132.089 233.857 132.12 233.923 132.162 233.982C132.205 234.04 132.258 234.09 132.32 234.127C132.381 234.165 132.449 234.19 132.521 234.201C132.592 234.213 132.665 234.21 132.735 234.193C132.805 234.176 132.871 234.146 132.929 234.103C132.988 234.061 133.037 234.007 133.075 233.946C133.112 233.884 133.138 233.816 133.149 233.744C133.16 233.673 133.157 233.6 133.14 233.53C129.672 219.109 133.663 205.599 137.622 196.805C140.129 191.166 143.327 185.86 147.143 181.011C147.218 180.922 147.263 180.812 147.271 180.697Z" fill="#6D7F8F"/>
<path d="M253.154 321.259H209.455L209.267 320.918C208.708 319.904 208.169 318.83 207.665 317.727C203.163 308.088 201.261 297.063 199.582 287.337L198.318 280.005C198.165 279.117 198.28 278.204 198.649 277.382C199.018 276.56 199.624 275.867 200.389 275.391C201.154 274.916 202.043 274.679 202.944 274.712C203.844 274.745 204.714 275.046 205.442 275.577C212.083 280.41 218.727 285.239 225.373 290.064C227.89 291.895 230.764 294.015 233.516 296.306C233.782 295.016 234.06 293.722 234.337 292.446C234.529 291.565 234.979 290.761 235.63 290.137C236.281 289.514 237.103 289.098 237.991 288.945C238.879 288.791 239.793 288.906 240.616 289.275C241.438 289.644 242.132 290.25 242.608 291.015L247.721 299.232C251.45 305.232 254.741 311.145 254.071 317.522C254.074 317.6 254.068 317.677 254.053 317.754C253.919 318.801 253.67 319.831 253.311 320.824L253.154 321.259Z" fill="#F0F0F0"/>
<path d="M232.795 149.417L224.362 118.194C224 116.872 223.134 115.746 221.95 115.057C220.765 114.369 219.358 114.173 218.031 114.514C217.344 114.69 216.701 115.004 216.14 115.437C215.578 115.87 215.111 116.413 214.767 117.032C214.422 117.651 214.207 118.335 214.135 119.04C214.063 119.745 214.135 120.457 214.347 121.134L224.102 153.298L229.206 173.093C228.462 173.66 227.912 174.443 227.629 175.335C227.346 176.226 227.344 177.183 227.624 178.076C227.903 178.969 228.451 179.753 229.192 180.324C229.934 180.894 230.832 181.223 231.767 181.264C232.701 181.306 233.625 181.059 234.414 180.557C235.204 180.055 235.819 179.322 236.177 178.458C236.535 177.594 236.619 176.64 236.416 175.727C236.214 174.814 235.735 173.985 235.045 173.353L232.795 149.417Z" fill="#A0616A"/>
<path d="M161.827 142.693L187.452 122.967C188.535 122.128 189.245 120.897 189.429 119.539C189.612 118.181 189.255 116.806 188.433 115.709C188.008 115.142 187.472 114.667 186.858 114.314C186.243 113.96 185.563 113.736 184.859 113.654C184.156 113.572 183.442 113.635 182.763 113.837C182.084 114.04 181.453 114.379 180.91 114.834L154.92 136.14L138.581 148.421C137.773 147.95 136.839 147.741 135.907 147.82C134.976 147.899 134.091 148.263 133.373 148.862C132.655 149.462 132.139 150.268 131.895 151.171C131.651 152.074 131.691 153.031 132.01 153.91C132.328 154.79 132.91 155.55 133.675 156.087C134.441 156.625 135.353 156.914 136.288 156.914C137.223 156.915 138.136 156.628 138.903 156.092C139.669 155.556 140.252 154.797 140.572 153.918L161.827 142.693Z" fill="#A0616A"/>
<path d="M182.713 147.227L181.583 172.46L217.049 164.75C214.03 154.611 211.977 152.881 214.246 145.825L182.713 147.227Z" fill="#A0616A"/>
<path d="M204.519 100.969H192.702L187.627 109.655L185.209 109.522C184.026 109.456 182.842 109.633 181.73 110.041C180.618 110.449 179.601 111.079 178.74 111.893C177.88 112.708 177.195 113.689 176.726 114.777C176.258 115.865 176.017 117.038 176.017 118.223L178.996 122.842C178.996 122.842 173.668 132.13 181.343 136.7C181.343 136.7 179.974 145.31 181.343 145.217C182.712 145.125 185.866 143.372 182.712 145.125C179.559 146.877 179.794 147.112 180.202 147.52L180.61 147.928L213.767 153.497C213.767 153.497 214.737 147.068 214.842 145.921C214.946 144.774 214.245 147.578 214.946 144.774C215.647 141.97 216.698 143.022 215.647 141.97C214.596 140.919 222.457 127.894 219.227 122.842L224.406 117.789C224.406 112.943 216.624 109.014 211.779 109.014H211.158L204.519 100.969Z" fill="#E6E6E6"/>
<path d="M176.047 311.531H171.264L168.988 293.078L176.048 293.078L176.047 311.531Z" fill="#A0616A"/>
<path d="M161.611 318.59C161.613 319.126 161.827 319.639 162.205 320.019C162.584 320.398 163.096 320.613 163.632 320.616H172.636L172.915 320.038L174.189 317.409L174.682 320.038L174.791 320.616H178.187L178.139 320.034L177.233 309.171L176.048 309.099L170.93 308.795L169.672 308.719V311.962C168.718 312.977 161.231 316.815 161.611 318.59Z" fill="#1C1C1E"/>
<path d="M247.132 299L243.109 301.588L231.214 287.3L237.151 283.481L247.132 299Z" fill="#A0616A"/>
<path d="M238.809 312.749C239.101 313.198 239.558 313.514 240.082 313.629C240.605 313.743 241.153 313.646 241.605 313.359L249.177 308.486L249.099 307.849L248.748 304.949L250.585 306.893L250.99 307.32L253.846 305.482L253.49 305.019L246.853 296.374L245.817 296.953L241.349 299.468L240.25 300.084L242.004 302.812C241.75 304.182 237.529 311.461 238.809 312.749Z" fill="#1C1C1E"/>
<path d="M216.493 161.899C216.493 161.899 193.822 173.894 181.832 165.711C181.832 165.711 179.209 178.417 178.158 179.469C177.107 180.52 175.432 180.978 176.62 182.151C177.807 183.324 178.468 184.908 176.211 186.919C173.953 188.931 171.702 188.293 173.879 190.364C176.055 192.435 167.296 243.251 167.296 243.251C167.296 243.251 168.698 290.507 167.296 291.936C165.895 293.366 164.021 293.686 165.834 295.453C167.647 297.22 167.647 295.85 167.647 298.287V300.725L168.476 303.148H179.852C179.852 303.148 182.597 299.958 179.852 297.187C177.107 294.417 180.687 293.659 181.525 291.059C182.362 288.459 183.764 291.263 182.362 288.459C180.961 285.656 180.287 286.189 180.274 284.345C180.26 282.502 200.932 210.308 200.932 210.308L203.435 250.266L233.551 294.027L242.416 287.377C242.416 287.377 235.962 278.29 237.471 277.04C238.98 275.791 233.023 274.224 234.902 272.815C236.78 271.405 232.258 269.985 233.962 268.117C235.667 266.249 231.614 261.541 229.266 261.541C226.918 261.541 223.622 253.692 223.622 253.692L228.542 191.688L216.493 161.899Z" fill="#1C1C1E"/>
<path d="M192.465 75.464C192.304 75.6747 191.026 75.5612 189.489 75.3367C186.45 74.8929 186.036 75.4203 183.764 77.4874C180.473 80.4818 182.344 98.7452 180.727 102.702L180.204 103.087C181.24 102.889 182.258 102.605 183.247 102.236C183.805 100.473 184.365 98.7055 184.929 96.9447C185.461 98.3147 185.795 99.7535 185.922 101.218C186.705 100.909 187.482 100.155 190.751 99.1432C192.397 98.0263 204.306 96.9032 205.837 96.4118C209.722 83.1888 203.461 77.8415 192.465 75.464Z" fill="#1C1C1E"/>
<path d="M196.485 95.8541C202.77 95.8541 207.865 90.7579 207.865 84.4714C207.865 78.1849 202.77 73.0886 196.485 73.0886C190.2 73.0886 185.105 78.1849 185.105 84.4714C185.105 90.7579 190.2 95.8541 196.485 95.8541Z" fill="#A0616A"/>
<path d="M203.65 74.4608C203.009 74.3661 202.391 74.1496 201.831 73.823C201.554 73.6553 201.329 73.4129 201.182 73.1234C201.036 72.834 200.974 72.5092 201.003 72.1861C201.143 71.3774 202.058 70.8945 202.877 70.9437C203.692 71.0613 204.467 71.3749 205.135 71.8578C205.062 71.0762 204.728 70.3419 204.187 69.7729C203.646 69.2039 202.93 68.8332 202.153 68.7203C203.231 68.6623 204.351 68.6111 205.347 69.0255C206.343 69.44 207.174 70.4663 206.994 71.5305C208.669 71.3146 210.321 72.4819 211.012 74.023C211.704 75.564 211.566 77.3738 211.014 78.97C210.96 79.2145 210.853 79.4443 210.702 79.6441C210.551 79.8438 210.359 80.0087 210.138 80.1276C209.575 80.3416 208.968 79.9828 208.48 79.6291C205.928 77.7814 203.606 75.6362 201.562 73.2389" fill="#1C1C1E"/>
<path d="M208.612 96.573C208.129 96.8001 208.381 97.6453 208.006 98.0238C207.843 98.1841 207.647 98.3062 207.431 98.3813C207.375 97.6759 207.21 96.9833 206.944 96.3277C206.895 96.2085 206.814 96.0753 206.688 96.0859C206.541 96.1034 206.503 96.2961 206.499 96.4398C206.469 97.1526 206.312 97.8542 206.033 98.511C206.03 98.518 206.026 98.5285 206.023 98.5355C205.914 98.532 205.802 98.5285 205.697 98.525C204.884 98.4935 203.083 96.4048 202.684 97.1127C204.092 94.614 205.809 90.8571 206.072 88.0009C206.163 87.403 206.118 86.7922 205.942 86.2136C205.85 85.9258 205.677 85.6704 205.444 85.4779C205.211 85.2853 204.928 85.1636 204.628 85.1272C204.48 85.1205 204.333 85.1465 204.196 85.2035C204.059 85.2605 203.937 85.347 203.837 85.4568C203.738 85.5666 203.664 85.6971 203.621 85.8388C203.578 85.9806 203.566 86.1301 203.588 86.2767L203.384 86.2487C201.499 84.7137 203.125 82.0467 200.932 80.9919C200.189 80.6344 195.641 81.8295 194.839 81.6192C194.822 80.7738 194.649 79.9388 194.331 79.1556C194.282 79.0364 194.201 78.9032 194.075 78.9137C193.928 78.9313 193.889 79.124 193.886 79.2677C193.856 79.9805 193.698 80.6821 193.42 81.3389C192.308 81.1811 191.177 81.2406 190.088 81.5141C189.128 81.7664 188.217 82.201 187.253 82.4323C186.777 82.5783 186.276 82.6256 185.781 82.5713C185.286 82.5171 184.807 82.3625 184.373 82.1168C183.151 81.2968 182.937 79.4815 183.546 78.1427C183.988 77.2837 184.584 76.5138 185.305 75.8718C185.855 75.3391 186.426 74.8274 186.998 74.3158C187.509 73.8567 188.021 73.3976 188.532 72.9385C189.176 72.3323 189.862 71.7725 190.585 71.2634C191.74 70.5064 193.037 69.9935 194.397 69.7561C195.757 69.5186 197.151 69.5617 198.493 69.8826C200.105 70.2681 202.26 69.7249 203.735 70.4783C204.506 70.8743 206.212 72.3918 206.888 72.9315C208.619 74.3088 207.448 73.1865 209.341 73.9828C213.855 75.8816 211.859 95.0442 208.612 96.573Z" fill="#1C1C1E"/>
<path d="M82.6088 179.654C121.586 179.654 153.183 148.049 153.183 109.063C153.183 70.0766 121.586 38.4718 82.6088 38.4718C43.6315 38.4718 12.0342 70.0766 12.0342 109.063C12.0342 148.049 43.6315 179.654 82.6088 179.654Z" fill="white"/>
<path d="M82.6091 180.359C43.3058 180.359 11.3301 148.376 11.3301 109.063C11.3301 69.7504 43.3058 37.7671 82.6091 37.7671C121.912 37.7671 153.888 69.7504 153.888 109.063C153.888 148.376 121.912 180.359 82.6091 180.359ZM82.6091 39.1764C44.0827 39.1764 12.739 70.5275 12.739 109.063C12.739 147.598 44.0827 178.95 82.6091 178.95C121.136 178.95 152.479 147.598 152.479 109.063C152.479 70.5275 121.136 39.1764 82.6091 39.1764Z" fill="#5A6E7F"/>
<path d="M72.9809 145.802C71.7622 145.802 70.5602 145.519 69.4702 144.973C68.3802 144.428 67.4322 143.636 66.7012 142.661L47.4473 116.983C46.8288 116.158 46.3788 115.219 46.123 114.22C45.8672 113.221 45.8105 112.182 45.9564 111.161C46.1022 110.14 46.4476 109.158 46.9729 108.271C47.4982 107.384 48.193 106.608 49.0178 105.99C49.8425 105.371 50.781 104.921 51.7797 104.665C52.7784 104.409 53.8176 104.353 54.8382 104.498C55.8587 104.644 56.8405 104.99 57.7276 105.515C58.6147 106.041 59.3896 106.736 60.0081 107.561L72.6046 124.359L104.957 75.819C106.113 74.0876 107.908 72.886 109.949 72.4783C111.99 72.0707 114.11 72.4904 115.841 73.6451C117.573 74.7999 118.775 76.5952 119.184 78.6364C119.593 80.6776 119.175 82.7977 118.021 84.5305L79.5136 142.306C78.817 143.35 77.8801 144.213 76.7815 144.821C75.6829 145.429 74.4545 145.765 73.1994 145.8C73.1266 145.801 73.0537 145.802 72.9809 145.802Z" fill="#5A6E7F"/>
<path d="M155.321 42.8823C155.518 41.5327 154.104 40.2098 152.165 39.9275C150.225 39.6453 148.494 40.5105 148.297 41.8601C148.101 43.2097 149.514 44.5326 151.454 44.8149C153.393 45.0972 155.125 44.2319 155.321 42.8823Z" fill="#E6E6E6"/>
<path d="M178.415 40.6285C178.611 39.2789 177.198 37.9561 175.258 37.6738C173.318 37.3915 171.587 38.2567 171.391 39.6064C171.194 40.956 172.608 42.2788 174.547 42.5611C176.487 42.8434 178.218 41.9782 178.415 40.6285Z" fill="#6D7F8F"/>
<path d="M148.998 24.1824C149.194 22.8327 147.781 21.5099 145.841 21.2276C143.901 20.9453 142.17 21.8106 141.974 23.1602C141.777 24.5098 143.191 25.8327 145.13 26.1149C147.07 26.3972 148.801 25.532 148.998 24.1824Z" fill="#FF6584"/>
<path d="M138.963 16.5225C138.973 15.2835 138.282 14.2738 137.42 14.2673C136.558 14.2607 135.852 15.2599 135.843 16.4988C135.833 17.7378 136.524 18.7475 137.386 18.754C138.248 18.7606 138.954 17.7614 138.963 16.5225Z" fill="#E6E6E6"/>
<path d="M135.56 2.25527C135.57 1.01628 134.879 0.00658808 134.017 7.05265e-05C133.155 -0.00644703 132.449 0.992675 132.44 2.23167C132.43 3.47066 133.121 4.48035 133.983 4.48687C134.845 4.49339 135.551 3.49426 135.56 2.25527Z" fill="#6D7F8F"/>
<path d="M162.022 27.3645C162.032 26.1255 161.341 25.1158 160.479 25.1093C159.617 25.1028 158.911 26.1019 158.902 27.3409C158.892 28.5799 159.583 29.5896 160.445 29.5961C161.307 29.6026 162.013 28.6035 162.022 27.3645Z" fill="#E6E6E6"/>
<path d="M150.863 32.9377C150.872 31.6987 150.181 30.6891 149.319 30.6825C148.458 30.676 147.751 31.6751 147.742 32.9141C147.733 34.1531 148.424 35.1628 149.285 35.1693C150.147 35.1758 150.853 34.1767 150.863 32.9377Z" fill="#FF6584"/>
<path d="M166.397 43.2384C166.407 41.9994 165.716 40.9897 164.854 40.9832C163.992 40.9766 163.286 41.9758 163.277 43.2148C163.267 44.4538 163.958 45.4634 164.82 45.4699C165.682 45.4764 166.388 44.4774 166.397 43.2384Z" fill="#6D7F8F"/>
<path d="M22.8818 210.115C23.0782 208.765 21.6649 207.442 19.7253 207.16C17.7857 206.878 16.0542 207.743 15.8579 209.093C15.6616 210.442 17.0748 211.765 19.0144 212.048C20.954 212.33 22.6855 211.465 22.8818 210.115Z" fill="#E6E6E6"/>
<path d="M45.9746 207.861C46.1709 206.512 44.7577 205.189 42.8181 204.906C40.8785 204.624 39.147 205.489 38.9507 206.839C38.7544 208.189 40.1676 209.511 42.1072 209.794C44.0468 210.076 45.7783 209.211 45.9746 207.861Z" fill="#6D7F8F"/>
<path d="M16.5581 191.415C16.7544 190.065 15.3412 188.742 13.4016 188.46C11.462 188.178 9.73049 189.043 9.53417 190.393C9.33786 191.742 10.7511 193.065 12.6907 193.348C14.6303 193.63 16.3618 192.765 16.5581 191.415Z" fill="#FF6584"/>
<path d="M6.52371 183.755C6.53308 182.516 5.84212 181.506 4.98042 181.5C4.11871 181.493 3.41256 182.493 3.40319 183.732C3.39382 184.971 4.08479 185.98 4.9465 185.987C5.8082 185.993 6.51434 184.994 6.52371 183.755Z" fill="#E6E6E6"/>
<path d="M3.12038 169.488C3.12974 168.249 2.43879 167.239 1.57708 167.233C0.715378 167.226 0.00923705 168.225 -0.00012974 169.464C-0.00949653 170.703 0.681458 171.713 1.54316 171.72C2.40487 171.726 3.11101 170.727 3.12038 169.488Z" fill="#6D7F8F"/>
<path d="M29.5828 194.597C29.5921 193.358 28.9012 192.349 28.0395 192.342C27.1778 192.336 26.4716 193.335 26.4623 194.574C26.4529 195.813 27.1438 196.822 28.0056 196.829C28.8673 196.835 29.5734 195.836 29.5828 194.597Z" fill="#E6E6E6"/>
<path d="M18.4231 200.17C18.4325 198.931 17.7415 197.922 16.8798 197.915C16.0181 197.909 15.312 198.908 15.3026 200.147C15.2932 201.386 15.9842 202.395 16.8459 202.402C17.7076 202.409 18.4138 201.409 18.4231 200.17Z" fill="#FF6584"/>
<path d="M33.9578 210.471C33.9671 209.232 33.2762 208.222 32.4145 208.216C31.5528 208.209 30.8466 209.208 30.8373 210.447C30.8279 211.686 31.5188 212.696 32.3806 212.703C33.2423 212.709 33.9484 211.71 33.9578 210.471Z" fill="#6D7F8F"/>
</g>
<defs>
<clipPath id="clip0_464_532">
<rect width="270" height="321.84" fill="white"/>
</clipPath>
</defs>
</svg>
